<svg width="21" height="13" viewBox="0 0 21 13" fill="none" xmlns="http://www.w3.org/2000/svg">
<path d="M20.8063 11.1153C20.8063 11.0322 20.7232 11.0322 20.7232 10.9492C20.3911 10.285 19.6439 9.4548 18.6477 8.54155C18.1495 8.12644 17.9004 7.79434 17.7344 7.62829C17.4853 7.2962 17.4853 7.04714 17.5684 6.71505C17.6514 6.46598 17.9835 6.05086 18.5646 5.30365C18.8967 4.88853 19.0628 4.63947 19.3118 4.3904C20.5572 2.72995 21.1383 1.65064 20.9723 1.1525L20.8893 1.06949C20.8063 0.986464 20.7232 0.903444 20.5572 0.903444C20.3911 0.820421 20.1421 0.820421 19.893 0.903444H16.7381C16.6551 0.903444 16.6551 0.903444 16.4891 0.903444C16.406 0.903444 16.323 0.903444 16.323 0.903444H16.24H16.157L16.0739 0.986459C15.9909 1.06948 15.9909 1.06948 15.9909 1.1525C15.6588 2.06575 15.2437 2.81296 14.8286 3.64319C14.5795 4.05831 14.3305 4.47343 14.0814 4.80552C13.8323 5.13761 13.6663 5.38667 13.5002 5.55272C13.3342 5.71877 13.1681 5.80179 13.0851 5.96783C13.0021 6.05086 12.8361 6.13389 12.8361 6.05086C12.753 6.05086 12.67 6.05086 12.67 5.96783C12.587 5.88481 12.504 5.80179 12.4209 5.71876C12.3379 5.63574 12.3379 5.46969 12.2549 5.30365C12.2549 5.1376 12.2549 4.97156 12.2549 4.88853C12.2549 4.80551 12.2549 4.55645 12.2549 4.3904C12.2549 4.14134 12.2549 3.97528 12.2549 3.89226C12.2549 3.64319 12.2549 3.31111 12.2549 2.97902C12.2549 2.64693 12.2549 2.39785 12.2549 2.2318C12.2549 2.06576 12.2549 1.81669 12.2549 1.65065C12.2549 1.40158 12.2549 1.23553 12.2549 1.1525C12.2549 1.06948 12.1719 0.903439 12.1719 0.820416C12.0889 0.737393 12.0058 0.654367 11.9228 0.571344C11.8398 0.488322 11.6737 0.488324 11.5907 0.405301C11.1756 0.322278 10.6775 0.239258 10.0963 0.239258C8.76794 0.239258 7.85468 0.322283 7.52259 0.488329C7.35655 0.571352 7.1905 0.65437 7.10748 0.820416C6.94143 0.986462 6.94143 1.06949 7.02445 1.06949C7.43957 1.15251 7.77166 1.31855 7.93771 1.56762L8.02074 1.73367C8.10376 1.8167 8.10374 1.98273 8.18677 2.2318C8.26979 2.48087 8.26979 2.72994 8.26979 3.06203C8.26979 3.56017 8.26979 4.05831 8.26979 4.3904C8.26979 4.80552 8.18677 5.05458 8.18677 5.30365C8.18677 5.55272 8.10376 5.71877 8.02074 5.80179C7.93771 5.96784 7.9377 6.05086 7.85468 6.05086C7.85468 6.05086 7.85467 6.13388 7.77165 6.13388C7.68863 6.13388 7.60561 6.21691 7.43957 6.21691C7.35654 6.21691 7.1905 6.13389 7.10748 6.05086C6.94143 5.96784 6.77539 5.80179 6.69236 5.63575C6.52632 5.4697 6.36027 5.22063 6.19422 4.88853C6.02818 4.55644 5.7791 4.22436 5.61305 3.72622L5.44702 3.39413C5.364 3.22809 5.19795 2.89599 5.03191 2.48087C4.86586 2.06576 4.69981 1.73367 4.53376 1.31856C4.45074 1.15251 4.36773 1.06948 4.2847 0.986459H4.20168C4.20168 0.986459 4.11864 0.903444 4.03562 0.903444C3.9526 0.903444 3.86958 0.820416 3.78656 0.820416H0.797731C0.465639 0.820416 0.299596 0.903436 0.216573 0.986459L0.133545 1.06949C0.133545 1.06949 0.133545 1.15251 0.133545 1.23553C0.133545 1.31855 0.13355 1.40157 0.216573 1.56762C0.631688 2.56389 1.12982 3.56017 1.62796 4.55645C2.1261 5.4697 2.62424 6.29993 2.95633 6.88109C3.37145 7.46225 3.70353 8.04341 4.11865 8.54155C4.53376 9.03969 4.78283 9.37178 4.86585 9.53782C5.0319 9.70387 5.11491 9.78689 5.19794 9.86991L5.44702 10.119C5.61307 10.285 5.86213 10.5341 6.19422 10.7832C6.52631 11.0322 6.94142 11.2813 7.35654 11.5304C7.77165 11.7794 8.2698 11.9455 8.76794 12.1115C9.3491 12.2776 9.84723 12.3606 10.3454 12.2776H11.5907C11.8398 12.2776 12.0058 12.1946 12.1719 12.0285L12.2549 11.9455C12.2549 11.8625 12.3379 11.8625 12.3379 11.7794C12.3379 11.6964 12.3379 11.6134 12.3379 11.4474C12.3379 11.1153 12.3379 10.8662 12.4209 10.6171C12.504 10.3681 12.504 10.202 12.587 10.036C12.67 9.86992 12.753 9.78689 12.8361 9.70387C12.9191 9.62084 13.0021 9.53782 13.0021 9.53782H13.0851C13.2512 9.4548 13.5002 9.53782 13.6663 9.70387C13.9154 9.86991 14.1644 10.119 14.3305 10.3681C14.4965 10.6171 14.7456 10.8662 15.0777 11.1983C15.4098 11.5304 15.6588 11.7794 15.8249 11.8625L16.0739 12.0285C16.24 12.1115 16.406 12.1946 16.6551 12.2776C16.9042 12.3606 17.0702 12.3606 17.2363 12.3606L20.0591 12.2776C20.3081 12.2776 20.5572 12.1946 20.7232 12.1115C20.8893 12.0285 20.9723 11.9455 20.9723 11.7794C20.9723 11.6964 20.9723 11.5304 20.9723 11.4474C20.8062 11.2813 20.8063 11.1983 20.8063 11.1153Z" fill="#A89060"/>
</svg>
